<svg width="36" height="36" viewBox="0 0 36 36" fill="none" xmlns="http://www.w3.org/2000/svg">
<path d="M5.61399 10.4741C5.29963 10.4415 4.98245 10.4252 4.66407 10.4252H1.03546C0.46386 10.4252 0.000488281 10.8967 0.000488281 11.4783C0.000488281 12.06 0.46386 12.5315 1.03546 12.5315H4.66407C6.72117 12.5315 8.55915 13.3832 9.65686 15.0079L12.0616 18.5671L9.16798 22.5964C9.00646 22.8213 8.82661 23.0287 8.63133 23.2169C8.90543 23.8873 9.23619 24.5277 9.61754 25.1318C10.075 24.763 10.4869 24.3297 10.8392 23.8392L17.5865 14.4437C18.431 13.2678 19.7763 12.5726 21.2077 12.5726H24.165L22.5071 14.2399C22.1688 14.5802 22.1093 15.099 22.3305 15.502C22.3751 15.5835 22.4312 15.6602 22.4988 15.7298C22.9006 16.1435 23.5559 16.1474 23.9625 15.7386L27.4124 12.2691C27.6076 12.0728 27.7182 11.8055 27.7198 11.5262C27.7209 11.3439 27.6755 11.1662 27.5901 11.0095C27.5446 10.9259 27.4878 10.8483 27.4207 10.7792L23.9707 7.2275C23.5689 6.81384 22.9136 6.80996 22.5071 7.21884C22.1687 7.55912 22.1093 8.07806 22.3306 8.48105C22.3752 8.56249 22.4313 8.6392 22.4989 8.70875L24.2061 10.4663H21.2077C19.1158 10.4663 17.1495 11.4823 15.9153 13.201L13.3559 16.7649L11.3626 13.8146C10.4383 12.4465 9.1631 11.5043 7.72936 10.9669C10.2187 6.85071 14.6869 4.1063 19.785 4.1063C27.5972 4.1063 33.9302 10.5506 33.9302 18.5C33.9302 26.4494 27.5972 32.8937 19.785 32.8937C11.9728 32.8937 5.63977 26.4494 5.63977 18.5C5.63977 17.2385 5.79924 16.015 6.09879 14.8491C5.66815 14.7119 5.18797 14.6378 4.66409 14.6378H4.01647C3.72447 15.8767 3.56982 17.17 3.56982 18.5C3.56982 20.6044 3.95699 22.6168 4.66279 24.4675H1.03546C0.46386 24.4675 0.000488281 24.939 0.000488281 25.5206C0.000488281 26.1023 0.46386 26.5738 1.03546 26.5738H5.54685C5.57793 26.5738 5.60898 26.5736 5.64 26.5731C8.4181 31.6024 13.7116 35 19.785 35C28.7404 35 36.0001 27.6127 36.0001 18.5C36.0001 9.3873 28.7404 2 19.785 2C13.6926 2 8.38497 5.41894 5.61399 10.4741Z" fill="#4DD4D4"/>
<path d="M14.6046 22.3311L15.8873 20.5116L16.8886 21.9936C17.9859 23.6177 19.8234 24.4674 21.8814 24.4674H24.1859L22.5028 22.7547C22.0986 22.3434 22.0986 21.6766 22.5028 21.2653C22.907 20.8541 23.5623 20.8541 23.9665 21.2653L27.4164 24.7759C27.8206 25.1872 27.8206 25.854 27.4164 26.2653L23.9665 29.7758C23.5623 30.1871 22.907 30.1871 22.5028 29.7758C22.0986 29.3646 22.0986 28.6977 22.5028 28.2865L24.1859 26.5737H21.8814C19.2673 26.5737 16.7324 25.4803 15.1828 23.1869L14.6046 22.3311Z" fill="#4DD4D4"/>
</svg>
